<svg xmlns="http://www.w3.org/2000/svg" viewBox="0 0 200 50" fill="none">
  <defs>
    <linearGradient id="toolGradient" x1="0%" y1="0%" x2="100%" y2="100%">
      <stop offset="0%" stop-color="#2d5a27"/>
      <stop offset="100%" stop-color="#4a8a42"/>
    </linearGradient>
  </defs>
  <g transform="translate(5, 8)">
    <path d="M28 6.5a7.5 7.5 0 0 0-12.6 5.5c0 1.1.2 2.2.7 3.2L4.7 26.6a2.5 2.5 0 0 0 0 3.5l1.2 1.2a2.5 2.5 0 0 0 3.5 0l11.4-11.4c1 .5 2.1.7 3.2.7a7.5 7.5 0 0 0 5.5-12.6l-4.3 4.3-3.2-.6-.6-3.2L25.7 4z" fill="url(#toolGradient)" stroke="#1e3d1a" stroke-width="1"/>
  </g>
  <text x="45" y="28" font-family="Montserrat, Arial, sans-serif" font-size="18" font-weight="800" fill="#1a1a1a">Toolshed</text>
  <text x="132" y="28" font-family="Montserrat, Arial, sans-serif" font-size="18" font-weight="800" fill="#2d5a27">Tested</text>
  <text x="45" y="42" font-family="Inter, Arial, sans-serif" font-size="8" font-weight="500" fill="#737373">EXPERT TOOL REVIEWS</text>
</svg>
